<svg width="19" height="15" viewBox="0 0 19 15" fill="none" xmlns="http://www.w3.org/2000/svg">
<path d="M6.6875 0.416992C9.80469 0.416992 12.375 2.57715 12.375 5.22949C12.375 7.90918 9.80469 10.042 6.6875 10.042C6.16797 10.042 5.67578 9.9873 5.18359 9.87793C4.36328 10.3975 3.16016 10.917 1.65625 10.917C1.38281 10.917 1.13672 10.7803 1.05469 10.5068C0.945312 10.2607 0.972656 9.9873 1.16406 9.76855C1.19141 9.76855 1.79297 9.1123 2.23047 8.2373C1.46484 7.41699 1 6.37793 1 5.22949C1 2.57715 3.54297 0.416992 6.6875 0.416992ZM5.48438 8.59277C5.89453 8.70215 6.27734 8.72949 6.6875 8.72949C9.09375 8.72949 11.0625 7.1709 11.0625 5.22949C11.0625 3.31543 9.09375 1.72949 6.6875 1.72949C4.25391 1.72949 2.3125 3.31543 2.3125 5.22949C2.3125 6.21387 2.77734 6.9248 3.1875 7.33496L3.84375 8.01855L3.40625 8.86621C3.29688 9.03027 3.1875 9.22168 3.07812 9.41309C3.57031 9.27637 4.03516 9.05762 4.5 8.75684L4.96484 8.4834L5.48438 8.59277ZM13.0586 3.94434C16.0938 4.05371 18.5 6.15918 18.5 8.72949C18.5 9.87793 18.0078 10.917 17.2422 11.7373C17.6797 12.6123 18.2812 13.2686 18.3086 13.2686C18.5 13.4873 18.5273 13.7607 18.418 14.0068C18.3359 14.2803 18.0898 14.417 17.8164 14.417C16.3125 14.417 15.1094 13.8975 14.2891 13.3779C13.7969 13.4873 13.3047 13.542 12.8125 13.542C10.5703 13.542 8.62891 12.4482 7.69922 10.8623C8.16406 10.8076 8.62891 10.6982 9.03906 10.5342C9.80469 11.5732 11.1992 12.2295 12.8125 12.2295C13.1953 12.2295 13.5781 12.2021 13.9883 12.0928L14.5078 11.9834L14.9727 12.2568C15.4375 12.5576 15.9023 12.7764 16.3945 12.9131C16.2852 12.7217 16.1758 12.5303 16.0664 12.3662L15.6289 11.5186L16.2852 10.835C16.6953 10.4248 17.1875 9.71387 17.1875 8.72949C17.1875 6.9248 15.4375 5.44824 13.2227 5.25684L13.25 5.22949C13.25 4.79199 13.168 4.35449 13.0586 3.94434Z" fill="white"/>
</svg>
