<svg width="34" height="56" viewBox="0 0 34 56" fill="none" xmlns="http://www.w3.org/2000/svg">
<path d="M32 23C32 29.875 22.8594 41.9844 18.7969 47.0625C17.8594 48.2344 16.0625 48.2344 15.125 47.0625C11.0625 41.9844 2 29.875 2 23C2 14.7188 8.64063 8 17 8C25.2812 8 32 14.7187 32 23Z" fill="#353434"/>
<path d="M18.04 15.8189C18.04 14.8143 18.9175 14 20 14V23.1811C20 24.1857 19.1225 25 18.04 25V15.8189Z" fill="#FF6600"/>
<path d="M15.52 15.8189C15.52 14.8143 16.3975 14 17.48 14V23.1811C17.48 24.1857 16.6025 25 15.52 25V15.8189Z" fill="#FF6600"/>
<path d="M13 15.8189C13 14.8143 13.8775 14 14.96 14V23.1811C14.96 24.1857 14.0825 25 13 25V15.8189Z" fill="#FF6600"/>
<path d="M21.7183 27.9444V30.8512L22.5486 27.9444H23.0009V32.8201H22.5014V29.9199L21.671 32.8201H21.2188V27.9444H21.7183ZM22.1166 27.2659C22.1886 27.2659 22.2494 27.2416 22.2989 27.1928C22.3484 27.144 22.3731 27.0841 22.3731 27.0132H22.7782C22.7782 27.195 22.7129 27.3502 22.5824 27.4788C22.4564 27.603 22.3011 27.665 22.1166 27.665C21.9276 27.665 21.7678 27.603 21.6373 27.4788C21.5113 27.3502 21.4483 27.195 21.4483 27.0132H21.8533C21.8533 27.0841 21.8781 27.144 21.9276 27.1928C21.9816 27.2416 22.0446 27.2659 22.1166 27.2659Z" fill="white"/>
<path d="M20.6801 27.9446V32.8202H20.1806V27.9446H20.6801ZM18.5266 29.9534H19.1072C19.2017 29.9534 19.2917 29.9711 19.3772 30.0066C19.4627 30.0421 19.537 30.0931 19.6 30.1596C19.6675 30.2217 19.7193 30.2948 19.7553 30.3791C19.7913 30.4633 19.8093 30.552 19.8093 30.6451V32.1285C19.8093 32.226 19.7913 32.3169 19.7553 32.4012C19.7193 32.4854 19.6675 32.5586 19.6 32.6207C19.537 32.6828 19.4627 32.7315 19.3772 32.767C19.2917 32.8025 19.2017 32.8202 19.1072 32.8202H18.0271V27.9446H18.5266V29.9534ZM19.3097 30.6451C19.3097 30.5875 19.2895 30.5409 19.249 30.5055C19.213 30.4656 19.1657 30.4456 19.1072 30.4456H18.5266V32.328H19.1072C19.1657 32.328 19.213 32.3103 19.249 32.2748C19.2895 32.2349 19.3097 32.1861 19.3097 32.1285V30.6451Z" fill="white"/>
<path d="M17.4853 27.9446V32.8202H16.9858V28.4368H16.2094V32.1285C16.2094 32.226 16.1914 32.3169 16.1554 32.4012C16.1194 32.4854 16.0677 32.5586 16.0002 32.6207C15.9372 32.6828 15.8629 32.7315 15.7774 32.767C15.6919 32.8025 15.6019 32.8202 15.5074 32.8202H15.3184V32.328H15.5074C15.5614 32.328 15.6086 32.3103 15.6491 32.2748C15.6896 32.2349 15.7099 32.1861 15.7099 32.1285V27.9446H17.4853Z" fill="white"/>
<path d="M12.9961 27.9446H14.7783V32.8202H14.2787V28.4368H13.4956V32.8202H12.9961V27.9446Z" fill="white"/>
<path d="M12.4561 28.4368H11.2747V29.9533H12.0308V30.4455H11.2747V32.328H12.4561V32.8202H10.7751V27.9445H12.4561V28.4368ZM11.5447 27V27.6785H11.1262V27H11.5447ZM12.105 27V27.6785H11.6865V27H12.105Z" fill="white"/>
<path d="M8 27.9446H10.2345V28.4368H9.37038V32.8202H8.87083V28.4368H8V27.9446Z" fill="white"/>
<path d="M19.692 33.5352H20.151V38.4108H19.6514V35.6304L18.9156 38.4108H18.4971L17.7613 35.6304V38.4108H17.2617V33.5352H17.714L18.7064 37.2534L19.692 33.5352Z" fill="white"/>
<path d="M16.0196 33.5352C16.1141 33.5352 16.2041 33.5529 16.2896 33.5884C16.3751 33.6238 16.4493 33.6748 16.5124 33.7414C16.5799 33.8034 16.6316 33.8766 16.6676 33.9609C16.7036 34.0451 16.7216 34.1338 16.7216 34.2269V37.719C16.7216 37.8166 16.7036 37.9075 16.6676 37.9918C16.6316 38.076 16.5799 38.1492 16.5124 38.2113C16.4493 38.2733 16.3751 38.3221 16.2896 38.3576C16.2041 38.3931 16.1141 38.4108 16.0196 38.4108H15.6415C15.4435 38.4108 15.277 38.3443 15.142 38.2113C15.007 38.0782 14.9395 37.9142 14.9395 37.719V34.2269C14.9395 34.1338 14.9575 34.0451 14.9935 33.9609C15.0295 33.8766 15.079 33.8034 15.142 33.7414C15.205 33.6748 15.2792 33.6238 15.3647 33.5884C15.4503 33.5529 15.5425 33.5352 15.6415 33.5352H16.0196ZM16.2221 34.2269C16.2221 34.1693 16.2018 34.1227 16.1613 34.0872C16.1208 34.0473 16.0736 34.0274 16.0196 34.0274H15.6415C15.583 34.0274 15.5335 34.0473 15.493 34.0872C15.457 34.1227 15.439 34.1693 15.439 34.2269V37.719C15.439 37.7767 15.457 37.8255 15.493 37.8654C15.5335 37.9008 15.583 37.9186 15.6415 37.9186H16.0196C16.0736 37.9186 16.1208 37.9008 16.1613 37.8654C16.2018 37.8255 16.2221 37.7767 16.2221 37.719V34.2269Z" fill="white"/>
<path d="M14.3994 37.9452V38.0716V38.4441V38.8897H13.8998V38.4441H12.4214V38.8831H11.9219V37.9452H12.1109C12.1649 37.9452 12.2122 37.9275 12.2527 37.892C12.2932 37.8521 12.3134 37.8033 12.3134 37.7456V33.5352H14.1023V37.9452H14.3994ZM12.813 34.0274V37.7456C12.813 37.821 12.804 37.8875 12.786 37.9452H13.6028V34.0274H12.813Z" fill="white"/>
</svg>
