<svg width="134" height="56" viewBox="0 0 134 56" fill="none" xmlns="http://www.w3.org/2000/svg">
<g id="logo">
<g id="Group 1">
<g id="Vector">
<path d="M124.773 9.59449C124.773 4.57174 128.905 0.5 134.003 0.5V46.4055C134.003 51.4283 129.871 55.5 124.773 55.5V9.59449Z" fill="#FF6600"/>
<path d="M112.906 9.59449C112.906 4.57174 117.038 0.5 122.136 0.5V46.4055C122.136 51.4283 118.004 55.5 112.906 55.5V9.59449Z" fill="#FF6600"/>
<path d="M101.039 9.59449C101.039 4.57174 105.171 0.5 110.269 0.5V46.4055C110.269 51.4283 106.137 55.5 101.039 55.5V9.59449Z" fill="#FF6600"/>
</g>
<g id="&#208;&#162;&#209;&#145;&#208;&#191;&#208;&#187;&#209;&#139;&#208;&#185; &#208;&#180;&#208;&#190;&#208;&#188;">
<path id="Vector_2" d="M125.232 16.0151H127.563V40.7755H125.027V26.6557L121.29 40.7755H119.164L115.428 26.6557V40.7755H112.891V16.0151H115.188L120.227 34.8979L125.232 16.0151Z" fill="#2B2A29"/>
<path id="Vector_3" d="M106.591 16.0146C107.071 16.0146 107.528 16.1047 107.962 16.2849C108.396 16.465 108.773 16.724 109.093 17.0618C109.436 17.3771 109.699 17.7487 109.882 18.1765C110.065 18.6044 110.156 19.0548 110.156 19.5277V37.262C110.156 37.7574 110.065 38.2191 109.882 38.6469C109.699 39.0748 109.436 39.4464 109.093 39.7617C108.773 40.0769 108.396 40.3246 107.962 40.5048C107.528 40.685 107.071 40.775 106.591 40.775H104.671C103.665 40.775 102.82 40.4372 102.134 39.7617C101.448 39.0861 101.105 38.2528 101.105 37.262V19.5277C101.105 19.0548 101.197 18.6044 101.38 18.1765C101.563 17.7487 101.814 17.3771 102.134 17.0618C102.454 16.724 102.831 16.465 103.265 16.2849C103.7 16.1047 104.168 16.0146 104.671 16.0146H106.591ZM107.619 19.5277C107.619 19.235 107.516 18.9985 107.311 18.8183C107.105 18.6157 106.865 18.5143 106.591 18.5143H104.671C104.374 18.5143 104.122 18.6157 103.917 18.8183C103.734 18.9985 103.642 19.235 103.642 19.5277V37.262C103.642 37.5547 103.734 37.8024 103.917 38.0051C104.122 38.1853 104.374 38.2754 104.671 38.2754H106.591C106.865 38.2754 107.105 38.1853 107.311 38.0051C107.516 37.8024 107.619 37.5547 107.619 37.262V19.5277Z" fill="#2B2A29"/>
<path id="Vector_4" d="M98.3551 38.4105V39.0523V40.9439V43.2072H95.8182V40.9439H88.3103V43.1734H85.7734V38.4105H86.7333C87.0076 38.4105 87.2476 38.3204 87.4533 38.1402C87.659 37.9376 87.7618 37.6898 87.7618 37.3971V16.0146H96.8466V38.4105H98.3551ZM90.2987 18.5143V37.3971C90.2987 37.7799 90.253 38.1177 90.1616 38.4105H94.3097V18.5143H90.2987Z" fill="#2B2A29"/>
<path id="Vector_5" d="M69.6619 16.0148V30.7764L73.8786 16.0148H76.1755V40.7752H73.6387V26.0473L69.4219 40.7752H67.125V16.0148H69.6619ZM71.6846 12.5693C72.0502 12.5693 72.3588 12.4454 72.6102 12.1977C72.8616 11.95 72.9873 11.646 72.9873 11.2856H75.0442C75.0442 12.209 74.7128 12.9971 74.05 13.6502C73.4101 14.2808 72.6216 14.596 71.6846 14.596C70.7247 14.596 69.9133 14.2808 69.2505 13.6502C68.6106 12.9971 68.2906 12.209 68.2906 11.2856H70.3475C70.3475 11.646 70.4732 11.95 70.7246 12.1977C70.9989 12.4454 71.3189 12.5693 71.6846 12.5693Z" fill="#2B2A29"/>
<path id="Vector_6" d="M64.3948 16.0146V40.775H61.8579V16.0146H64.3948ZM53.4588 26.2161H56.4071C56.887 26.2161 57.3441 26.3061 57.7783 26.4863C58.2126 26.6665 58.5897 26.9254 58.9097 27.2632C59.2525 27.5785 59.5153 27.9501 59.6982 28.378C59.881 28.8058 59.9724 29.2562 59.9724 29.7291V37.262C59.9724 37.7574 59.881 38.2191 59.6982 38.6469C59.5153 39.0748 59.2525 39.4464 58.9097 39.7617C58.5897 40.0769 58.2126 40.3246 57.7783 40.5048C57.3441 40.685 56.887 40.775 56.4071 40.775H50.9219V16.0146H53.4588V26.2161ZM57.4355 29.7291C57.4355 29.4364 57.3327 29.1999 57.127 29.0198C56.9441 28.8171 56.7042 28.7158 56.4071 28.7158H53.4588V38.2754H56.4071C56.7042 38.2754 56.9441 38.1853 57.127 38.0051C57.3327 37.8024 57.4355 37.5547 57.4355 37.262V29.7291Z" fill="#2B2A29"/>
<path id="Vector_7" d="M48.1667 16.0146V40.775H45.6299V18.5143H41.6874V37.262C41.6874 37.7574 41.596 38.2191 41.4131 38.6469C41.2303 39.0748 40.9675 39.4464 40.6246 39.7617C40.3047 40.0769 39.9276 40.3246 39.4933 40.5048C39.0591 40.685 38.602 40.775 38.122 40.775H37.1621V38.2754H38.122C38.3963 38.2754 38.6363 38.1853 38.8419 38.0051C39.0476 37.8024 39.1505 37.5547 39.1505 37.262V16.0146H48.1667Z" fill="#2B2A29"/>
<path id="Vector_8" d="M25.377 16.0151H34.4275V40.7755H31.8906V18.5148H27.9138V40.7755H25.377V16.0151Z" fill="#2B2A29"/>
<path id="Vector_9" d="M22.6301 18.5146H16.6306V26.2164H20.4703V28.7161H16.6306V38.2757H22.6301V40.7754H14.0938V16.015H22.6301V18.5146ZM18.0019 11.2183V14.6638H15.8764V11.2183H18.0019ZM20.8474 11.2183V14.6638H18.7219V11.2183H20.8474Z" fill="#2B2A29"/>
<path id="Vector_10" d="M0 16.0151H11.3475V18.5148H6.95932V40.7755H4.42242V18.5148H0V16.0151Z" fill="#2B2A29"/>
</g>
</g>
</g>
</svg>
