<svg width="134" height="56" viewBox="0 0 134 56" fill="none" xmlns="http://www.w3.org/2000/svg">
<path d="M124.773 9.59449C124.773 4.57174 128.905 0.5 134.003 0.5V46.4055C134.003 51.4283 129.871 55.5 124.773 55.5V9.59449Z" fill="#FF6600"/>
<path d="M112.906 9.59449C112.906 4.57174 117.038 0.5 122.136 0.5V46.4055C122.136 51.4283 118.004 55.5 112.906 55.5V9.59449Z" fill="#FF6600"/>
<path d="M101.039 9.59449C101.039 4.57174 105.171 0.5 110.269 0.5V46.4055C110.269 51.4283 106.137 55.5 101.039 55.5V9.59449Z" fill="#FF6600"/>
<path d="M125.232 16.0151H127.563V40.7755H125.027V26.6557L121.29 40.7755H119.164L115.428 26.6557V40.7755H112.891V16.0151H115.188L120.227 34.8979L125.232 16.0151Z" fill="white"/>
<path d="M106.591 16.0151C107.071 16.0151 107.528 16.1052 107.962 16.2854C108.396 16.4655 108.773 16.7245 109.093 17.0623C109.436 17.3776 109.699 17.7492 109.882 18.177C110.065 18.6049 110.156 19.0553 110.156 19.5282V37.2625C110.156 37.7579 110.065 38.2195 109.882 38.6474C109.699 39.0753 109.436 39.4469 109.093 39.7621C108.773 40.0774 108.396 40.3251 107.962 40.5053C107.528 40.6855 107.071 40.7755 106.591 40.7755H104.671C103.665 40.7755 102.82 40.4377 102.134 39.7621C101.448 39.0866 101.105 38.2533 101.105 37.2625V19.5282C101.105 19.0553 101.197 18.6049 101.38 18.177C101.563 17.7492 101.814 17.3776 102.134 17.0623C102.454 16.7245 102.831 16.4655 103.265 16.2854C103.7 16.1052 104.168 16.0151 104.671 16.0151H106.591ZM107.619 19.5282C107.619 19.2355 107.516 18.999 107.311 18.8188C107.105 18.6162 106.865 18.5148 106.591 18.5148H104.671C104.374 18.5148 104.122 18.6162 103.917 18.8188C103.734 18.999 103.642 19.2355 103.642 19.5282V37.2625C103.642 37.5552 103.734 37.8029 103.917 38.0056C104.122 38.1858 104.374 38.2758 104.671 38.2758H106.591C106.865 38.2758 107.105 38.1858 107.311 38.0056C107.516 37.8029 107.619 37.5552 107.619 37.2625V19.5282Z" fill="white"/>
<path d="M98.3551 38.411V39.0528V40.9444V43.2077H95.8182V40.9444H88.3103V43.1739H85.7734V38.411H86.7333C87.0076 38.411 87.2476 38.3209 87.4533 38.1407C87.659 37.9381 87.7618 37.6903 87.7618 37.3976V16.0151H96.8466V38.411H98.3551ZM90.2987 18.5148V37.3976C90.2987 37.7804 90.253 38.1182 90.1616 38.411H94.3097V18.5148H90.2987Z" fill="white"/>
<path d="M69.6619 16.0153V30.7769L73.8786 16.0153H76.1755V40.7757H73.6387V26.0478L69.4219 40.7757H67.125V16.0153H69.6619ZM71.6846 12.5698C72.0502 12.5698 72.3588 12.4459 72.6102 12.1982C72.8616 11.9505 72.9873 11.6464 72.9873 11.2861H75.0442C75.0442 12.2094 74.7128 12.9976 74.05 13.6507C73.4101 14.2813 72.6216 14.5965 71.6846 14.5965C70.7247 14.5965 69.9133 14.2813 69.2505 13.6507C68.6106 12.9976 68.2906 12.2094 68.2906 11.2861H70.3475C70.3475 11.6464 70.4732 11.9505 70.7246 12.1982C70.9989 12.4459 71.3189 12.5698 71.6846 12.5698Z" fill="white"/>
<path d="M64.3948 16.0151V40.7755H61.8579V16.0151H64.3948ZM53.4588 26.2166H56.4071C56.887 26.2166 57.3441 26.3066 57.7783 26.4868C58.2126 26.6669 58.5897 26.9259 58.9097 27.2637C59.2525 27.579 59.5153 27.9506 59.6982 28.3784C59.881 28.8063 59.9724 29.2567 59.9724 29.7296V37.2625C59.9724 37.7579 59.881 38.2195 59.6982 38.6474C59.5153 39.0753 59.2525 39.4469 58.9097 39.7621C58.5897 40.0774 58.2126 40.3251 57.7783 40.5053C57.3441 40.6855 56.887 40.7755 56.4071 40.7755H50.9219V16.0151H53.4588V26.2166ZM57.4355 29.7296C57.4355 29.4369 57.3327 29.2004 57.127 29.0203C56.9441 28.8176 56.7042 28.7162 56.4071 28.7162H53.4588V38.2758H56.4071C56.7042 38.2758 56.9441 38.1858 57.127 38.0056C57.3327 37.8029 57.4355 37.5552 57.4355 37.2625V29.7296Z" fill="white"/>
<path d="M48.1667 16.0151V40.7755H45.6299V18.5148H41.6874V37.2625C41.6874 37.7579 41.596 38.2195 41.4131 38.6474C41.2303 39.0753 40.9675 39.4469 40.6246 39.7621C40.3047 40.0774 39.9276 40.3251 39.4933 40.5053C39.0591 40.6855 38.602 40.7755 38.122 40.7755H37.1621V38.2758H38.122C38.3963 38.2758 38.6363 38.1858 38.8419 38.0056C39.0476 37.8029 39.1505 37.5552 39.1505 37.2625V16.0151H48.1667Z" fill="white"/>
<path d="M25.377 16.0151H34.4275V40.7755H31.8906V18.5148H27.9138V40.7755H25.377V16.0151Z" fill="white"/>
<path d="M22.6301 18.5149H16.6306V26.2166H20.4703V28.7163H16.6306V38.2759H22.6301V40.7756H14.0938V16.0152H22.6301V18.5149ZM18.0019 11.2185V14.664H15.8764V11.2185H18.0019ZM20.8474 11.2185V14.664H18.7219V11.2185H20.8474Z" fill="white"/>
<path d="M0 16.0151H11.3475V18.5148H6.95932V40.7755H4.42242V18.5148H0V16.0151Z" fill="white"/>
</svg>
