<svg width="14" height="13" viewBox="0 0 14 13" fill="none" xmlns="http://www.w3.org/2000/svg">
<path d="M12.6875 11.1484C13.0391 11.5391 13.0391 12.125 12.6875 12.4766C12.2969 12.8672 11.7109 12.8672 11.3594 12.4766L6.75 7.82812L2.10156 12.4766C1.71094 12.8672 1.125 12.8672 0.773438 12.4766C0.382812 12.125 0.382812 11.5391 0.773438 11.1484L5.42188 6.5L0.773438 1.85156C0.382812 1.46094 0.382812 0.875 0.773438 0.523438C1.125 0.132812 1.71094 0.132812 2.0625 0.523438L6.75 5.21094L11.3984 0.5625C11.75 0.171875 12.3359 0.171875 12.6875 0.5625C13.0781 0.914062 13.0781 1.5 12.6875 1.89062L8.03906 6.5L12.6875 11.1484Z" fill="white"/>
</svg>
